<svg xmlns="http://www.w3.org/2000/svg" width="1440" height="5463" fill="none" viewBox="0 0 1440 5463"><ellipse fill="#16FCD2" rx="392.146" ry="385.089" transform="matrix(0.969732 -0.244172 0.253855 0.967242 688.182 340.376)"/><ellipse fill="#FCA016" rx="219.466" ry="215.517" transform="matrix(0.969732 -0.244172 0.253855 0.967242 355.533 1525.21)"/><ellipse fill="#16FCD2" rx="178.305" ry="175.096" transform="matrix(0.969732 -0.244172 0.253855 0.967242 584.357 1318.36)"/><ellipse fill="#FC165B" rx="219.466" ry="215.517" transform="matrix(0.969732 -0.244172 0.253855 0.967242 893.533 2162.85)"/><ellipse fill="#6016FC" rx="178.305" ry="175.096" transform="matrix(0.969732 -0.244172 0.253855 0.967242 1122.36 1956.01)"/><ellipse fill="#FCA016" rx="392.146" ry="385.089" transform="matrix(0.969732 -0.244172 0.253855 0.967242 151.033 475.626)"/><ellipse fill="#FC165B" rx="392.146" ry="385.089" transform="matrix(0.969732 -0.244172 0.253855 0.967242 1010.47 259.226)"/><ellipse fill="#16FCD2" rx="219.466" ry="215.517" transform="matrix(0.969732 -0.244172 0.253855 0.967242 1058.25 5200.04)"/><ellipse fill="#6016FC" rx="178.305" ry="175.096" transform="matrix(0.969732 -0.244172 0.253855 0.967242 341.357 5122.9)"/></svg>