<svg xmlns="http://www.w3.org/2000/svg" width="429" height="312" fill="none" viewBox="0 0 429 312"><rect width="429" height="311" y=".508" fill="#fff" fill-opacity=".1" rx="10"/><circle cx="31" cy="30.508" r="5" fill="#FC165B"/><circle cx="47" cy="30.508" r="5" fill="#FCA016"/><circle cx="63" cy="30.508" r="5" fill="#16FCA9"/><path fill="#fff" fill-opacity=".1" stroke="#44C7FF" d="M109.5 64.5076C109.5 63.1269 110.619 62.0076 112 62.0076H318C319.381 62.0076 320.5 63.1269 320.5 64.5076V311.008H109.5V64.5076Z"/><path stroke="#fff" stroke-linecap="round" stroke-linejoin="round" stroke-width="2" d="M313 223.508L322.427 246.134L325.773 236.281L335.627 232.934L313 223.508Z"/><rect width="176" height="87" x="127" y="117.508" fill="#fff" fill-opacity=".1" rx="3"/><rect width="21" height="21" x="26" y="69" fill="#fff" fill-opacity=".1" rx="3"/><rect width="21" height="21" x="26" y="102" fill="#fff" fill-opacity=".1" rx="3"/><rect width="21" height="21" x="26" y="135" fill="#fff" fill-opacity=".1" rx="3"/><rect width="21" height="21" x="26" y="168" fill="#fff" fill-opacity=".1" rx="3"/><rect width="21" height="21" x="57" y="69" fill="#fff" fill-opacity=".1" rx="3"/><rect width="56" height="55" x="341" y="63" fill="#fff" fill-opacity=".1" rx="3"/><rect width="56" height="21" x="341" y="135" fill="#fff" fill-opacity=".1" rx="3"/><rect width="56" height="43" x="341" y="173" fill="#fff" fill-opacity=".1" rx="3"/><rect width="52" height="59" x="26" y="205" fill="#fff" fill-opacity=".1" rx="3"/><rect width="21" height="21" x="57" y="102" fill="#fff" fill-opacity=".1" rx="3"/><rect width="21" height="21" x="57" y="135" fill="#fff" fill-opacity=".1" rx="3"/><rect width="21" height="21" x="57" y="168" fill="#fff" fill-opacity=".1" rx="3"/><rect width="84" height="87" x="127" y="213.508" fill="#fff" fill-opacity=".1" rx="3"/><rect width="84" height="87" x="219" y="213.508" fill="#fff" fill-opacity=".1" rx="3"/><rect width="58" height="15" fill="#fff" fill-opacity=".1" rx="3" transform="matrix(1 0 0 -1 186 97.5076)"/><rect width="15" height="15" fill="#fff" fill-opacity=".1" rx="3" transform="matrix(1 0 0 -1 127 97.5076)"/><rect width="7" height="7" x=".5" y="-.5" fill="#fff" stroke="#44C7FF" transform="matrix(1 0 0 -1 317 64.5076)"/><rect width="7" height="7" x=".5" y="-.5" fill="#fff" stroke="#44C7FF" transform="matrix(1 0 0 -1 105 64.5076)"/></svg>